<svg width="36" height="37" viewBox="0 0 36 37" fill="none" xmlns="http://www.w3.org/2000/svg">
<rect y="0.666748" width="36" height="36" rx="4" fill="#FFCC4D"/>
<path fill-rule="evenodd" clip-rule="evenodd" d="M14.5292 14.7264H19.543V17.1314C20.2653 15.7482 22.1175 14.5054 24.8999 14.5054C30.2337 14.5054 31.5 17.2588 31.5 22.3106V31.6667H26.1V23.4611C26.1 20.5842 25.3778 18.9618 23.5391 18.9618C20.9889 18.9618 19.9292 20.7103 19.9292 23.4598V31.6667H14.5292V14.7264ZM5.2695 31.4457H10.6695V14.5054H5.2695V31.4457ZM11.4431 8.98175C11.4433 9.41761 11.3535 9.84915 11.179 10.2513C11.0045 10.6535 10.7487 11.0182 10.4265 11.3243C10.1034 11.6339 9.72005 11.8791 9.29847 12.046C8.87689 12.2128 8.4253 12.298 7.9695 12.2967C7.05096 12.2948 6.16983 11.9461 5.5152 11.3256C5.1943 11.0184 4.93947 10.6532 4.76527 10.251C4.59107 9.84884 4.50093 9.41752 4.5 8.98175C4.5 8.10165 4.8645 7.25925 5.51655 6.63785C6.16955 6.015 7.05174 5.66594 7.97085 5.66675C8.89155 5.66675 9.77445 6.01645 10.4265 6.63785C11.0785 7.25925 11.4431 8.10165 11.4431 8.98175Z" fill="#343434"/>
</svg>
