<svg width="36" height="37" viewBox="0 0 36 37" fill="none" xmlns="http://www.w3.org/2000/svg">
<rect y="0.666748" width="36" height="36" rx="4" fill="#FFCC4D"/>
<path d="M17.9895 11.6976C16.15 11.6976 14.3858 12.4284 13.085 13.7292C11.7843 15.0299 11.0535 16.7941 11.0535 18.6336C11.0535 20.4732 11.7843 22.2374 13.085 23.5381C14.3858 24.8389 16.15 25.5696 17.9895 25.5696C19.8291 25.5696 21.5933 24.8389 22.894 23.5381C24.1948 22.2374 24.9255 20.4732 24.9255 18.6336C24.9255 16.7941 24.1948 15.0299 22.894 13.7292C21.5933 12.4284 19.8291 11.6976 17.9895 11.6976ZM17.9895 23.1381C16.7945 23.1381 15.6483 22.6634 14.8033 21.8184C13.9583 20.9733 13.4835 19.8272 13.4835 18.6321C13.4835 17.4371 13.9583 16.291 14.8033 15.4459C15.6483 14.6009 16.7945 14.1261 17.9895 14.1261C19.1846 14.1261 20.3307 14.6009 21.1757 15.4459C22.0208 16.291 22.4955 17.4371 22.4955 18.6321C22.4955 19.8272 22.0208 20.9733 21.1757 21.8184C20.3307 22.6634 19.1846 23.1381 17.9895 23.1381Z" fill="#343434"/>
<path d="M25.2 13.0596C26.0931 13.0596 26.817 12.3357 26.817 11.4426C26.817 10.5496 26.0931 9.82565 25.2 9.82565C24.307 9.82565 23.583 10.5496 23.583 11.4426C23.583 12.3357 24.307 13.0596 25.2 13.0596Z" fill="#343434"/>
<path d="M30.7905 9.79865C30.4433 8.90192 29.9126 8.08757 29.2325 7.40774C28.5524 6.7279 27.7379 6.19756 26.841 5.85065C25.7915 5.45668 24.6828 5.24366 23.562 5.22065C22.1175 5.15765 21.66 5.13965 17.997 5.13965C14.334 5.13965 13.8645 5.13965 12.432 5.22065C11.3121 5.24248 10.2042 5.45555 9.15602 5.85065C8.25892 6.19715 7.44417 6.72735 6.76402 7.40724C6.08387 8.08713 5.55336 8.90168 5.20652 9.79865C4.81248 10.8481 4.59994 11.9569 4.57802 13.0776C4.51352 14.5206 4.49402 14.9781 4.49402 18.6426C4.49402 22.3056 4.49402 22.7722 4.57802 24.2076C4.60052 25.3296 4.81202 26.4366 5.20652 27.4881C5.55433 28.3848 6.08536 29.199 6.76567 29.8788C7.44598 30.5586 8.26061 31.089 9.15752 31.4361C10.2037 31.8459 11.3121 32.0742 12.435 32.1111C13.8795 32.1741 14.337 32.1936 18 32.1936C21.663 32.1936 22.1325 32.1936 23.565 32.1111C24.6857 32.0884 25.7944 31.8759 26.844 31.4827C27.7407 31.1349 28.555 30.6041 29.235 29.9241C29.915 29.2441 30.4458 28.4298 30.7935 27.5331C31.188 26.4832 31.3995 25.3762 31.422 24.2542C31.4865 22.8111 31.506 22.3536 31.506 18.6891C31.506 15.0246 31.506 14.5596 31.422 13.1241C31.4046 11.9876 31.1909 10.8625 30.7905 9.79865ZM28.9635 24.0966C28.9538 24.9611 28.7961 25.8175 28.497 26.6286C28.2718 27.212 27.9269 27.7416 27.4846 28.1837C27.0424 28.6257 26.5125 28.9702 25.929 29.1951C25.1269 29.4928 24.2796 29.6506 23.424 29.6616C21.999 29.7276 21.597 29.7442 17.943 29.7442C14.286 29.7442 13.9125 29.7442 12.4605 29.6616C11.6054 29.6512 10.7585 29.4934 9.95702 29.1951C9.37155 28.9716 8.83952 28.6277 8.39535 28.1856C7.95119 27.7435 7.60477 27.2131 7.37852 26.6286C7.08369 25.8262 6.92599 24.9799 6.91202 24.1251C6.84752 22.7001 6.83252 22.2982 6.83252 18.6441C6.83252 14.9886 6.83252 14.6151 6.91202 13.1616C6.92171 12.2977 7.0795 11.4418 7.37852 10.6311C7.83602 9.44765 8.77352 8.51615 9.95702 8.06315C10.7589 7.76636 11.6056 7.60859 12.4605 7.59665C13.887 7.53215 14.2875 7.51415 17.943 7.51415C21.5985 7.51415 21.9735 7.51415 23.424 7.59665C24.2796 7.60694 25.1271 7.76476 25.929 8.06315C26.5124 8.28856 27.0422 8.63345 27.4845 9.07569C27.9267 9.51794 28.2716 10.0478 28.497 10.6311C28.7918 11.4336 28.9496 12.2799 28.9635 13.1346C29.028 14.5611 29.0445 14.9616 29.0445 18.6171C29.0445 22.2711 29.0445 22.6642 28.98 24.0982H28.9635V24.0966Z" fill="#343434"/>
</svg>
