<svg width="36" height="37" viewBox="0 0 36 37" fill="none" xmlns="http://www.w3.org/2000/svg">
<rect y="0.666748" width="36" height="36" rx="4" fill="#FFCC4D"/>
<path d="M11.6982 9.26392C12.5817 9.26392 13.3767 9.34042 14.1057 9.49642C14.8302 9.65092 15.4482 9.90592 15.9702 10.2584C16.4847 10.6109 16.8867 11.0789 17.1762 11.6669C17.4567 12.2474 17.5962 12.9734 17.5962 13.8314C17.5962 14.7614 17.3862 15.5384 16.9647 16.1579C16.5402 16.7789 15.9147 17.2874 15.0807 17.6804C16.2162 18.0089 17.0577 18.5834 17.6157 19.3994C18.1767 20.2229 18.4512 21.2084 18.4512 22.3634C18.4512 23.3009 18.2727 24.1064 17.9142 24.7829C17.5687 25.4493 17.0675 26.0226 16.4532 26.4539C15.8168 26.897 15.106 27.2222 14.3547 27.4139C13.5669 27.6207 12.7556 27.7246 11.9412 27.7229H2.99365V9.26392H11.6982ZM11.1717 16.7219C11.8917 16.7219 12.4887 16.5509 12.9597 16.2044C13.4277 15.8624 13.6542 15.2984 13.6542 14.5259C13.6542 14.0969 13.5777 13.7429 13.4277 13.4654C13.2815 13.1984 13.0652 12.9765 12.8022 12.8234C12.5268 12.6601 12.2229 12.5507 11.9067 12.5009C11.5619 12.4366 11.2118 12.406 10.8612 12.4094H7.05865V16.7219H11.1717ZM11.3982 24.5804C11.7987 24.5804 12.1797 24.5459 12.5382 24.4649C12.8997 24.3869 13.2207 24.2609 13.4937 24.0734C13.7667 23.8934 13.9917 23.6489 14.1537 23.3369C14.3172 23.0279 14.3967 22.6244 14.3967 22.1399C14.3967 21.1889 14.1282 20.5124 13.5972 20.1029C13.0647 19.6979 12.3507 19.4969 11.4762 19.4969H7.05865V24.5819H11.3982V24.5804ZM24.2457 24.5189C24.7962 25.0559 25.5897 25.3259 26.6217 25.3259C27.3612 25.3259 28.0002 25.1384 28.5387 24.7664C29.0697 24.3929 29.3937 23.9939 29.5182 23.5814H32.7507C32.2317 25.1894 31.4442 26.3384 30.3672 27.0299C29.3037 27.7244 28.0092 28.0694 26.4972 28.0694C25.4442 28.0694 24.4962 27.8999 23.6472 27.5639C22.8322 27.2466 22.0958 26.7563 21.4887 26.1269C20.8915 25.4829 20.4299 24.7254 20.1312 23.8994C19.8028 22.9861 19.6403 22.0214 19.6512 21.0509C19.6512 20.0519 19.8177 19.1174 20.1447 18.2549C20.4551 17.4212 20.9317 16.6593 21.5457 16.0154C22.1532 15.3854 22.8732 14.8889 23.7117 14.5244C24.5934 14.1536 25.5422 13.9687 26.4987 13.9814C27.6297 13.9814 28.6182 14.2004 29.4672 14.6414C30.2905 15.0624 31.0044 15.6694 31.5522 16.4144C32.0967 17.1539 32.4852 18.0014 32.7267 18.9509C32.9682 19.8989 33.0522 20.8889 32.9832 21.9254H23.3367C23.3382 22.9814 23.6937 23.9819 24.2457 24.5189ZM28.4637 17.4974C28.0272 17.0144 27.2892 16.7534 26.3862 16.7534C25.7997 16.7534 25.3152 16.8509 24.9252 17.0519C24.5686 17.232 24.2522 17.4826 23.9952 17.7884C23.7694 18.0661 23.6021 18.3865 23.5032 18.7304C23.4166 19.0172 23.3608 19.3123 23.3367 19.6109H29.3097C29.2227 18.6749 28.9017 17.9834 28.4637 17.4974ZM22.5867 10.5029H30.0702V12.3254H22.5867V10.5029Z" fill="#343434"/>
</svg>
